<mxfile host="app.diagrams.net" modified="2021-08-30T20:32:17.882Z" agent="5.0 (Windows NT 10.0; Win64; x64) AppleWebKit/537.36 (KHTML, like Gecko) Chrome/92.0.4515.159 Safari/537.36" etag="GLyXrAlxl91u1jVPYIyY" version="15.0.3" type="github">
  <diagram id="cmkbcSQtQ9GMWB0hdeYi" name="Page-1">
    <mxGraphModel dx="782" dy="412" grid="1" gridSize="10" guides="1" tooltips="1" connect="1" arrows="1" fold="1" page="1" pageScale="1" pageWidth="980" pageHeight="1390" math="0" shadow="0">
      <root>
        <mxCell id="0" />
        <mxCell id="1" parent="0" />
        <mxCell id="okrKcHC8rQpI2fEXYS8D-1" value="Customer" style="shape=table;startSize=30;container=1;collapsible=1;childLayout=tableLayout;fixedRows=1;rowLines=0;fontStyle=1;align=center;resizeLast=1;" vertex="1" parent="1">
          <mxGeometry x="480" y="290" width="180" height="160" as="geometry" />
        </mxCell>
        <mxCell id="okrKcHC8rQpI2fEXYS8D-2" value="" style="shape=partialRectangle;collapsible=0;dropTarget=0;pointerEvents=0;fillColor=none;top=0;left=0;bottom=1;right=0;points=[[0,0.5],[1,0.5]];portConstraint=eastwest;" vertex="1" parent="okrKcHC8rQpI2fEXYS8D-1">
          <mxGeometry y="30" width="180" height="30" as="geometry" />
        </mxCell>
        <mxCell id="okrKcHC8rQpI2fEXYS8D-3" value="PK" style="shape=partialRectangle;connectable=0;fillColor=none;top=0;left=0;bottom=0;right=0;fontStyle=1;overflow=hidden;" vertex="1" parent="okrKcHC8rQpI2fEXYS8D-2">
          <mxGeometry width="30" height="30" as="geometry" />
        </mxCell>
        <mxCell id="okrKcHC8rQpI2fEXYS8D-4" value="Customer Number" style="shape=partialRectangle;connectable=0;fillColor=none;top=0;left=0;bottom=0;right=0;align=left;spacingLeft=6;fontStyle=5;overflow=hidden;" vertex="1" parent="okrKcHC8rQpI2fEXYS8D-2">
          <mxGeometry x="30" width="150" height="30" as="geometry" />
        </mxCell>
        <mxCell id="okrKcHC8rQpI2fEXYS8D-5" value="" style="shape=partialRectangle;collapsible=0;dropTarget=0;pointerEvents=0;fillColor=none;top=0;left=0;bottom=0;right=0;points=[[0,0.5],[1,0.5]];portConstraint=eastwest;" vertex="1" parent="okrKcHC8rQpI2fEXYS8D-1">
          <mxGeometry y="60" width="180" height="30" as="geometry" />
        </mxCell>
        <mxCell id="okrKcHC8rQpI2fEXYS8D-6" value="" style="shape=partialRectangle;connectable=0;fillColor=none;top=0;left=0;bottom=0;right=0;editable=1;overflow=hidden;" vertex="1" parent="okrKcHC8rQpI2fEXYS8D-5">
          <mxGeometry width="30" height="30" as="geometry" />
        </mxCell>
        <mxCell id="okrKcHC8rQpI2fEXYS8D-7" value="Customer First Name" style="shape=partialRectangle;connectable=0;fillColor=none;top=0;left=0;bottom=0;right=0;align=left;spacingLeft=6;overflow=hidden;" vertex="1" parent="okrKcHC8rQpI2fEXYS8D-5">
          <mxGeometry x="30" width="150" height="30" as="geometry" />
        </mxCell>
        <mxCell id="okrKcHC8rQpI2fEXYS8D-8" value="" style="shape=partialRectangle;collapsible=0;dropTarget=0;pointerEvents=0;fillColor=none;top=0;left=0;bottom=0;right=0;points=[[0,0.5],[1,0.5]];portConstraint=eastwest;" vertex="1" parent="okrKcHC8rQpI2fEXYS8D-1">
          <mxGeometry y="90" width="180" height="30" as="geometry" />
        </mxCell>
        <mxCell id="okrKcHC8rQpI2fEXYS8D-9" value="" style="shape=partialRectangle;connectable=0;fillColor=none;top=0;left=0;bottom=0;right=0;editable=1;overflow=hidden;" vertex="1" parent="okrKcHC8rQpI2fEXYS8D-8">
          <mxGeometry width="30" height="30" as="geometry" />
        </mxCell>
        <mxCell id="okrKcHC8rQpI2fEXYS8D-10" value="Customer Last Name" style="shape=partialRectangle;connectable=0;fillColor=none;top=0;left=0;bottom=0;right=0;align=left;spacingLeft=6;overflow=hidden;" vertex="1" parent="okrKcHC8rQpI2fEXYS8D-8">
          <mxGeometry x="30" width="150" height="30" as="geometry" />
        </mxCell>
        <mxCell id="okrKcHC8rQpI2fEXYS8D-11" value="" style="shape=partialRectangle;collapsible=0;dropTarget=0;pointerEvents=0;fillColor=none;top=0;left=0;bottom=0;right=0;points=[[0,0.5],[1,0.5]];portConstraint=eastwest;" vertex="1" parent="okrKcHC8rQpI2fEXYS8D-1">
          <mxGeometry y="120" width="180" height="30" as="geometry" />
        </mxCell>
        <mxCell id="okrKcHC8rQpI2fEXYS8D-12" value="" style="shape=partialRectangle;connectable=0;fillColor=none;top=0;left=0;bottom=0;right=0;editable=1;overflow=hidden;" vertex="1" parent="okrKcHC8rQpI2fEXYS8D-11">
          <mxGeometry width="30" height="30" as="geometry" />
        </mxCell>
        <mxCell id="okrKcHC8rQpI2fEXYS8D-13" value="" style="shape=partialRectangle;connectable=0;fillColor=none;top=0;left=0;bottom=0;right=0;align=left;spacingLeft=6;overflow=hidden;" vertex="1" parent="okrKcHC8rQpI2fEXYS8D-11">
          <mxGeometry x="30" width="150" height="30" as="geometry" />
        </mxCell>
        <mxCell id="okrKcHC8rQpI2fEXYS8D-27" value="Street Address" style="shape=table;startSize=30;container=1;collapsible=1;childLayout=tableLayout;fixedRows=1;rowLines=0;fontStyle=1;align=center;resizeLast=1;" vertex="1" parent="1">
          <mxGeometry x="580" y="560" width="180" height="210" as="geometry" />
        </mxCell>
        <mxCell id="okrKcHC8rQpI2fEXYS8D-28" value="" style="shape=partialRectangle;collapsible=0;dropTarget=0;pointerEvents=0;fillColor=none;top=0;left=0;bottom=0;right=0;points=[[0,0.5],[1,0.5]];portConstraint=eastwest;" vertex="1" parent="okrKcHC8rQpI2fEXYS8D-27">
          <mxGeometry y="30" width="180" height="30" as="geometry" />
        </mxCell>
        <mxCell id="okrKcHC8rQpI2fEXYS8D-29" value="PK,FK1" style="shape=partialRectangle;connectable=0;fillColor=none;top=0;left=0;bottom=0;right=0;fontStyle=1;overflow=hidden;" vertex="1" parent="okrKcHC8rQpI2fEXYS8D-28">
          <mxGeometry width="60" height="30" as="geometry" />
        </mxCell>
        <mxCell id="okrKcHC8rQpI2fEXYS8D-30" value="Customer Number" style="shape=partialRectangle;connectable=0;fillColor=none;top=0;left=0;bottom=0;right=0;align=left;spacingLeft=6;fontStyle=5;overflow=hidden;" vertex="1" parent="okrKcHC8rQpI2fEXYS8D-28">
          <mxGeometry x="60" width="120" height="30" as="geometry" />
        </mxCell>
        <mxCell id="okrKcHC8rQpI2fEXYS8D-31" value="" style="shape=partialRectangle;collapsible=0;dropTarget=0;pointerEvents=0;fillColor=none;top=0;left=0;bottom=1;right=0;points=[[0,0.5],[1,0.5]];portConstraint=eastwest;" vertex="1" parent="okrKcHC8rQpI2fEXYS8D-27">
          <mxGeometry y="60" width="180" height="30" as="geometry" />
        </mxCell>
        <mxCell id="okrKcHC8rQpI2fEXYS8D-32" value="PK,FK2" style="shape=partialRectangle;connectable=0;fillColor=none;top=0;left=0;bottom=0;right=0;fontStyle=1;overflow=hidden;" vertex="1" parent="okrKcHC8rQpI2fEXYS8D-31">
          <mxGeometry width="60" height="30" as="geometry" />
        </mxCell>
        <mxCell id="okrKcHC8rQpI2fEXYS8D-33" value="Address Type code" style="shape=partialRectangle;connectable=0;fillColor=none;top=0;left=0;bottom=0;right=0;align=left;spacingLeft=6;fontStyle=5;overflow=hidden;" vertex="1" parent="okrKcHC8rQpI2fEXYS8D-31">
          <mxGeometry x="60" width="120" height="30" as="geometry" />
        </mxCell>
        <mxCell id="okrKcHC8rQpI2fEXYS8D-34" value="" style="shape=partialRectangle;collapsible=0;dropTarget=0;pointerEvents=0;fillColor=none;top=0;left=0;bottom=0;right=0;points=[[0,0.5],[1,0.5]];portConstraint=eastwest;" vertex="1" parent="okrKcHC8rQpI2fEXYS8D-27">
          <mxGeometry y="90" width="180" height="40" as="geometry" />
        </mxCell>
        <mxCell id="okrKcHC8rQpI2fEXYS8D-35" value="" style="shape=partialRectangle;connectable=0;fillColor=none;top=0;left=0;bottom=0;right=0;editable=1;overflow=hidden;" vertex="1" parent="okrKcHC8rQpI2fEXYS8D-34">
          <mxGeometry width="60" height="40" as="geometry" />
        </mxCell>
        <mxCell id="okrKcHC8rQpI2fEXYS8D-36" value="Street Address" style="shape=partialRectangle;connectable=0;fillColor=none;top=0;left=0;bottom=0;right=0;align=left;spacingLeft=6;overflow=hidden;" vertex="1" parent="okrKcHC8rQpI2fEXYS8D-34">
          <mxGeometry x="60" width="120" height="40" as="geometry" />
        </mxCell>
        <mxCell id="okrKcHC8rQpI2fEXYS8D-37" value="" style="shape=partialRectangle;collapsible=0;dropTarget=0;pointerEvents=0;fillColor=none;top=0;left=0;bottom=0;right=0;points=[[0,0.5],[1,0.5]];portConstraint=eastwest;" vertex="1" parent="okrKcHC8rQpI2fEXYS8D-27">
          <mxGeometry y="130" width="180" height="30" as="geometry" />
        </mxCell>
        <mxCell id="okrKcHC8rQpI2fEXYS8D-38" value="" style="shape=partialRectangle;connectable=0;fillColor=none;top=0;left=0;bottom=0;right=0;editable=1;overflow=hidden;" vertex="1" parent="okrKcHC8rQpI2fEXYS8D-37">
          <mxGeometry width="60" height="30" as="geometry" />
        </mxCell>
        <mxCell id="okrKcHC8rQpI2fEXYS8D-39" value="City" style="shape=partialRectangle;connectable=0;fillColor=none;top=0;left=0;bottom=0;right=0;align=left;spacingLeft=6;overflow=hidden;" vertex="1" parent="okrKcHC8rQpI2fEXYS8D-37">
          <mxGeometry x="60" width="120" height="30" as="geometry" />
        </mxCell>
        <mxCell id="okrKcHC8rQpI2fEXYS8D-54" value="" style="shape=partialRectangle;collapsible=0;dropTarget=0;pointerEvents=0;fillColor=none;top=0;left=0;bottom=0;right=0;points=[[0,0.5],[1,0.5]];portConstraint=eastwest;" vertex="1" parent="1">
          <mxGeometry x="580" y="720" width="180" height="30" as="geometry" />
        </mxCell>
        <mxCell id="okrKcHC8rQpI2fEXYS8D-55" value="" style="shape=partialRectangle;connectable=0;fillColor=none;top=0;left=0;bottom=0;right=0;editable=1;overflow=hidden;" vertex="1" parent="okrKcHC8rQpI2fEXYS8D-54">
          <mxGeometry width="60" height="30" as="geometry" />
        </mxCell>
        <mxCell id="okrKcHC8rQpI2fEXYS8D-56" value="State Code" style="shape=partialRectangle;connectable=0;fillColor=none;top=0;left=0;bottom=0;right=0;align=left;spacingLeft=6;overflow=hidden;fontStyle=1" vertex="1" parent="okrKcHC8rQpI2fEXYS8D-54">
          <mxGeometry x="60" width="120" height="30" as="geometry" />
        </mxCell>
        <mxCell id="okrKcHC8rQpI2fEXYS8D-57" value="State" style="shape=table;startSize=30;container=1;collapsible=1;childLayout=tableLayout;fixedRows=1;rowLines=0;fontStyle=1;align=center;resizeLast=1;" vertex="1" parent="1">
          <mxGeometry x="800" y="450" width="180" height="90" as="geometry" />
        </mxCell>
        <mxCell id="okrKcHC8rQpI2fEXYS8D-58" value="" style="shape=partialRectangle;collapsible=0;dropTarget=0;pointerEvents=0;fillColor=none;top=0;left=0;bottom=1;right=0;points=[[0,0.5],[1,0.5]];portConstraint=eastwest;" vertex="1" parent="okrKcHC8rQpI2fEXYS8D-57">
          <mxGeometry y="30" width="180" height="30" as="geometry" />
        </mxCell>
        <mxCell id="okrKcHC8rQpI2fEXYS8D-59" value="PK" style="shape=partialRectangle;connectable=0;fillColor=none;top=0;left=0;bottom=0;right=0;fontStyle=1;overflow=hidden;" vertex="1" parent="okrKcHC8rQpI2fEXYS8D-58">
          <mxGeometry width="30" height="30" as="geometry" />
        </mxCell>
        <mxCell id="okrKcHC8rQpI2fEXYS8D-60" value="State Code" style="shape=partialRectangle;connectable=0;fillColor=none;top=0;left=0;bottom=0;right=0;align=left;spacingLeft=6;fontStyle=5;overflow=hidden;" vertex="1" parent="okrKcHC8rQpI2fEXYS8D-58">
          <mxGeometry x="30" width="150" height="30" as="geometry" />
        </mxCell>
        <mxCell id="okrKcHC8rQpI2fEXYS8D-61" value="" style="shape=partialRectangle;collapsible=0;dropTarget=0;pointerEvents=0;fillColor=none;top=0;left=0;bottom=0;right=0;points=[[0,0.5],[1,0.5]];portConstraint=eastwest;" vertex="1" parent="okrKcHC8rQpI2fEXYS8D-57">
          <mxGeometry y="60" width="180" height="30" as="geometry" />
        </mxCell>
        <mxCell id="okrKcHC8rQpI2fEXYS8D-62" value="" style="shape=partialRectangle;connectable=0;fillColor=none;top=0;left=0;bottom=0;right=0;editable=1;overflow=hidden;" vertex="1" parent="okrKcHC8rQpI2fEXYS8D-61">
          <mxGeometry width="30" height="30" as="geometry" />
        </mxCell>
        <mxCell id="okrKcHC8rQpI2fEXYS8D-63" value="State Name" style="shape=partialRectangle;connectable=0;fillColor=none;top=0;left=0;bottom=0;right=0;align=left;spacingLeft=6;overflow=hidden;" vertex="1" parent="okrKcHC8rQpI2fEXYS8D-61">
          <mxGeometry x="30" width="150" height="30" as="geometry" />
        </mxCell>
        <mxCell id="okrKcHC8rQpI2fEXYS8D-90" value="Order" style="shape=table;startSize=30;container=1;collapsible=1;childLayout=tableLayout;fixedRows=1;rowLines=0;fontStyle=1;align=center;resizeLast=1;" vertex="1" parent="1">
          <mxGeometry x="210" y="360" width="180" height="160" as="geometry" />
        </mxCell>
        <mxCell id="okrKcHC8rQpI2fEXYS8D-91" value="" style="shape=partialRectangle;collapsible=0;dropTarget=0;pointerEvents=0;fillColor=none;top=0;left=0;bottom=1;right=0;points=[[0,0.5],[1,0.5]];portConstraint=eastwest;" vertex="1" parent="okrKcHC8rQpI2fEXYS8D-90">
          <mxGeometry y="30" width="180" height="30" as="geometry" />
        </mxCell>
        <mxCell id="okrKcHC8rQpI2fEXYS8D-92" value="PK" style="shape=partialRectangle;connectable=0;fillColor=none;top=0;left=0;bottom=0;right=0;fontStyle=1;overflow=hidden;" vertex="1" parent="okrKcHC8rQpI2fEXYS8D-91">
          <mxGeometry width="30" height="30" as="geometry" />
        </mxCell>
        <mxCell id="okrKcHC8rQpI2fEXYS8D-93" value="Order Number" style="shape=partialRectangle;connectable=0;fillColor=none;top=0;left=0;bottom=0;right=0;align=left;spacingLeft=6;fontStyle=5;overflow=hidden;" vertex="1" parent="okrKcHC8rQpI2fEXYS8D-91">
          <mxGeometry x="30" width="150" height="30" as="geometry" />
        </mxCell>
        <mxCell id="okrKcHC8rQpI2fEXYS8D-94" value="" style="shape=partialRectangle;collapsible=0;dropTarget=0;pointerEvents=0;fillColor=none;top=0;left=0;bottom=0;right=0;points=[[0,0.5],[1,0.5]];portConstraint=eastwest;" vertex="1" parent="okrKcHC8rQpI2fEXYS8D-90">
          <mxGeometry y="60" width="180" height="30" as="geometry" />
        </mxCell>
        <mxCell id="okrKcHC8rQpI2fEXYS8D-95" value="" style="shape=partialRectangle;connectable=0;fillColor=none;top=0;left=0;bottom=0;right=0;editable=1;overflow=hidden;" vertex="1" parent="okrKcHC8rQpI2fEXYS8D-94">
          <mxGeometry width="30" height="30" as="geometry" />
        </mxCell>
        <mxCell id="okrKcHC8rQpI2fEXYS8D-96" value="Customer Number" style="shape=partialRectangle;connectable=0;fillColor=none;top=0;left=0;bottom=0;right=0;align=left;spacingLeft=6;overflow=hidden;fontStyle=1" vertex="1" parent="okrKcHC8rQpI2fEXYS8D-94">
          <mxGeometry x="30" width="150" height="30" as="geometry" />
        </mxCell>
        <mxCell id="okrKcHC8rQpI2fEXYS8D-97" value="" style="shape=partialRectangle;collapsible=0;dropTarget=0;pointerEvents=0;fillColor=none;top=0;left=0;bottom=0;right=0;points=[[0,0.5],[1,0.5]];portConstraint=eastwest;" vertex="1" parent="okrKcHC8rQpI2fEXYS8D-90">
          <mxGeometry y="90" width="180" height="30" as="geometry" />
        </mxCell>
        <mxCell id="okrKcHC8rQpI2fEXYS8D-98" value="" style="shape=partialRectangle;connectable=0;fillColor=none;top=0;left=0;bottom=0;right=0;editable=1;overflow=hidden;" vertex="1" parent="okrKcHC8rQpI2fEXYS8D-97">
          <mxGeometry width="30" height="30" as="geometry" />
        </mxCell>
        <mxCell id="okrKcHC8rQpI2fEXYS8D-99" value="Item Number" style="shape=partialRectangle;connectable=0;fillColor=none;top=0;left=0;bottom=0;right=0;align=left;spacingLeft=6;overflow=hidden;fontStyle=1" vertex="1" parent="okrKcHC8rQpI2fEXYS8D-97">
          <mxGeometry x="30" width="150" height="30" as="geometry" />
        </mxCell>
        <mxCell id="okrKcHC8rQpI2fEXYS8D-100" value="" style="shape=partialRectangle;collapsible=0;dropTarget=0;pointerEvents=0;fillColor=none;top=0;left=0;bottom=0;right=0;points=[[0,0.5],[1,0.5]];portConstraint=eastwest;" vertex="1" parent="okrKcHC8rQpI2fEXYS8D-90">
          <mxGeometry y="120" width="180" height="30" as="geometry" />
        </mxCell>
        <mxCell id="okrKcHC8rQpI2fEXYS8D-101" value="" style="shape=partialRectangle;connectable=0;fillColor=none;top=0;left=0;bottom=0;right=0;editable=1;overflow=hidden;" vertex="1" parent="okrKcHC8rQpI2fEXYS8D-100">
          <mxGeometry width="30" height="30" as="geometry" />
        </mxCell>
        <mxCell id="okrKcHC8rQpI2fEXYS8D-102" value="Address Type Code" style="shape=partialRectangle;connectable=0;fillColor=none;top=0;left=0;bottom=0;right=0;align=left;spacingLeft=6;overflow=hidden;fontStyle=1" vertex="1" parent="okrKcHC8rQpI2fEXYS8D-100">
          <mxGeometry x="30" width="150" height="30" as="geometry" />
        </mxCell>
        <mxCell id="okrKcHC8rQpI2fEXYS8D-103" value="Item" style="shape=table;startSize=30;container=1;collapsible=1;childLayout=tableLayout;fixedRows=1;rowLines=0;fontStyle=1;align=center;resizeLast=1;" vertex="1" parent="1">
          <mxGeometry x="210" y="620" width="180" height="150" as="geometry" />
        </mxCell>
        <mxCell id="okrKcHC8rQpI2fEXYS8D-104" value="" style="shape=partialRectangle;collapsible=0;dropTarget=0;pointerEvents=0;fillColor=none;top=0;left=0;bottom=1;right=0;points=[[0,0.5],[1,0.5]];portConstraint=eastwest;" vertex="1" parent="okrKcHC8rQpI2fEXYS8D-103">
          <mxGeometry y="30" width="180" height="30" as="geometry" />
        </mxCell>
        <mxCell id="okrKcHC8rQpI2fEXYS8D-105" value="PK" style="shape=partialRectangle;connectable=0;fillColor=none;top=0;left=0;bottom=0;right=0;fontStyle=1;overflow=hidden;" vertex="1" parent="okrKcHC8rQpI2fEXYS8D-104">
          <mxGeometry width="30" height="30" as="geometry" />
        </mxCell>
        <mxCell id="okrKcHC8rQpI2fEXYS8D-106" value="Item number" style="shape=partialRectangle;connectable=0;fillColor=none;top=0;left=0;bottom=0;right=0;align=left;spacingLeft=6;fontStyle=5;overflow=hidden;" vertex="1" parent="okrKcHC8rQpI2fEXYS8D-104">
          <mxGeometry x="30" width="150" height="30" as="geometry" />
        </mxCell>
        <mxCell id="okrKcHC8rQpI2fEXYS8D-107" value="" style="shape=partialRectangle;collapsible=0;dropTarget=0;pointerEvents=0;fillColor=none;top=0;left=0;bottom=0;right=0;points=[[0,0.5],[1,0.5]];portConstraint=eastwest;" vertex="1" parent="okrKcHC8rQpI2fEXYS8D-103">
          <mxGeometry y="60" width="180" height="30" as="geometry" />
        </mxCell>
        <mxCell id="okrKcHC8rQpI2fEXYS8D-108" value="" style="shape=partialRectangle;connectable=0;fillColor=none;top=0;left=0;bottom=0;right=0;editable=1;overflow=hidden;" vertex="1" parent="okrKcHC8rQpI2fEXYS8D-107">
          <mxGeometry width="30" height="30" as="geometry" />
        </mxCell>
        <mxCell id="okrKcHC8rQpI2fEXYS8D-109" value="Item Description" style="shape=partialRectangle;connectable=0;fillColor=none;top=0;left=0;bottom=0;right=0;align=left;spacingLeft=6;overflow=hidden;" vertex="1" parent="okrKcHC8rQpI2fEXYS8D-107">
          <mxGeometry x="30" width="150" height="30" as="geometry" />
        </mxCell>
        <mxCell id="okrKcHC8rQpI2fEXYS8D-110" value="" style="shape=partialRectangle;collapsible=0;dropTarget=0;pointerEvents=0;fillColor=none;top=0;left=0;bottom=0;right=0;points=[[0,0.5],[1,0.5]];portConstraint=eastwest;" vertex="1" parent="okrKcHC8rQpI2fEXYS8D-103">
          <mxGeometry y="90" width="180" height="30" as="geometry" />
        </mxCell>
        <mxCell id="okrKcHC8rQpI2fEXYS8D-111" value="" style="shape=partialRectangle;connectable=0;fillColor=none;top=0;left=0;bottom=0;right=0;editable=1;overflow=hidden;" vertex="1" parent="okrKcHC8rQpI2fEXYS8D-110">
          <mxGeometry width="30" height="30" as="geometry" />
        </mxCell>
        <mxCell id="okrKcHC8rQpI2fEXYS8D-112" value="Price" style="shape=partialRectangle;connectable=0;fillColor=none;top=0;left=0;bottom=0;right=0;align=left;spacingLeft=6;overflow=hidden;" vertex="1" parent="okrKcHC8rQpI2fEXYS8D-110">
          <mxGeometry x="30" width="150" height="30" as="geometry" />
        </mxCell>
        <mxCell id="okrKcHC8rQpI2fEXYS8D-113" value="" style="shape=partialRectangle;collapsible=0;dropTarget=0;pointerEvents=0;fillColor=none;top=0;left=0;bottom=0;right=0;points=[[0,0.5],[1,0.5]];portConstraint=eastwest;" vertex="1" parent="okrKcHC8rQpI2fEXYS8D-103">
          <mxGeometry y="120" width="180" height="20" as="geometry" />
        </mxCell>
        <mxCell id="okrKcHC8rQpI2fEXYS8D-114" value="" style="shape=partialRectangle;connectable=0;fillColor=none;top=0;left=0;bottom=0;right=0;editable=1;overflow=hidden;" vertex="1" parent="okrKcHC8rQpI2fEXYS8D-113">
          <mxGeometry width="30" height="20" as="geometry" />
        </mxCell>
        <mxCell id="okrKcHC8rQpI2fEXYS8D-115" value="" style="shape=partialRectangle;connectable=0;fillColor=none;top=0;left=0;bottom=0;right=0;align=left;spacingLeft=6;overflow=hidden;" vertex="1" parent="okrKcHC8rQpI2fEXYS8D-113">
          <mxGeometry x="30" width="150" height="20" as="geometry" />
        </mxCell>
        <mxCell id="okrKcHC8rQpI2fEXYS8D-116" value="" style="edgeStyle=entityRelationEdgeStyle;fontSize=12;html=1;endArrow=ERoneToMany;exitX=0;exitY=0.25;exitDx=0;exitDy=0;entryX=1;entryY=0.5;entryDx=0;entryDy=0;" edge="1" parent="1" source="okrKcHC8rQpI2fEXYS8D-1" target="okrKcHC8rQpI2fEXYS8D-91">
          <mxGeometry width="100" height="100" relative="1" as="geometry">
            <mxPoint x="470" y="340" as="sourcePoint" />
            <mxPoint x="570" y="460" as="targetPoint" />
          </mxGeometry>
        </mxCell>
        <mxCell id="okrKcHC8rQpI2fEXYS8D-117" value="" style="edgeStyle=entityRelationEdgeStyle;fontSize=12;html=1;endArrow=ERoneToMany;entryX=0;entryY=0.5;entryDx=0;entryDy=0;" edge="1" parent="1" target="okrKcHC8rQpI2fEXYS8D-31">
          <mxGeometry width="100" height="100" relative="1" as="geometry">
            <mxPoint x="560" y="450" as="sourcePoint" />
            <mxPoint x="570" y="460" as="targetPoint" />
          </mxGeometry>
        </mxCell>
        <mxCell id="okrKcHC8rQpI2fEXYS8D-119" value="" style="edgeStyle=entityRelationEdgeStyle;fontSize=12;html=1;endArrow=ERoneToMany;exitX=0.5;exitY=1;exitDx=0;exitDy=0;entryX=0.5;entryY=0;entryDx=0;entryDy=0;" edge="1" parent="1" source="okrKcHC8rQpI2fEXYS8D-90" target="okrKcHC8rQpI2fEXYS8D-103">
          <mxGeometry width="100" height="100" relative="1" as="geometry">
            <mxPoint x="470" y="560" as="sourcePoint" />
            <mxPoint x="570" y="460" as="targetPoint" />
          </mxGeometry>
        </mxCell>
        <mxCell id="okrKcHC8rQpI2fEXYS8D-121" value="" style="edgeStyle=entityRelationEdgeStyle;fontSize=12;html=1;endArrow=ERoneToMany;exitX=-0.013;exitY=0.189;exitDx=0;exitDy=0;exitPerimeter=0;" edge="1" parent="1" source="okrKcHC8rQpI2fEXYS8D-57" target="okrKcHC8rQpI2fEXYS8D-34">
          <mxGeometry width="100" height="100" relative="1" as="geometry">
            <mxPoint x="590" y="580" as="sourcePoint" />
            <mxPoint x="690" y="480" as="targetPoint" />
          </mxGeometry>
        </mxCell>
      </root>
    </mxGraphModel>
  </diagram>
</mxfile>
